<?xml version="1.0" standalone="no"?>
<!DOCTYPE svg PUBLIC "-//W3C//DTD SVG 20010904//EN" "http://www.w3.org/TR/2001/REC-SVG-20010904/DTD/svg10.dtd">
<svg xmlns="http://www.w3.org/2000/svg" version="1.0" width="225.000000pt" height="225.000000pt" viewBox="0 0 225.000000 225.000000" preserveAspectRatio="xMidYMid meet">
<metadata>
Created by potrace 1.16, written by Peter Selinger 2001-2019
<meta name="Producer" content="Online-Convert"/></metadata>
<g transform="translate(0.000000,225.000000) scale(0.100000,-0.100000)" fill="#000000" stroke="none">
<path d="M810 1982 c-157 -31 -287 -57 -289 -59 -2 -2 -2 -5 0 -8 12 -11 588 -155 623 -155 34 0 624 144 635 155 7 8 -18 13 -315 70 -160 30 -308 54 -330 54 -21 -1 -167 -26 -324 -57z"/>
<path d="M1626 1758 c-7 -157 -13 -220 -25 -258 -20 -63 -16 -70 34 -70 52 0 52 2 32 90 -9 38 -10 65 -4 84 6 19 6 31 -2 39 -7 7 -11 52 -11 114 0 57 -4 103 -9 103 -6 0 -12 -46 -15 -102z"/>
<path d="M822 1734 c9 -86 17 -105 56 -133 145 -103 421 -97 548 13 38 32 39 36 44 110 4 63 2 76 -10 76 -8 0 -81 -18 -163 -39 -165 -44 -143 -45 -352 14 -68 19 -125 35 -127 35 -2 0 -1 -34 4 -76z"/>
<path d="M834 1564 c-12 -46 3 -143 31 -199 114 -234 453 -232 566 3 24 51 40 204 22 215 -6 4 -36 -7 -67 -24 -78 -42 -146 -59 -242 -59 -91 0 -166 19 -241 61 -29 16 -55 29 -58 29 -2 0 -8 -12 -11 -26z"/>
<path d="M1086 1144 c-22 -21 -20 -31 9 -58 32 -29 32 -60 0 -128 -14 -29 -25 -60 -25 -68 0 -25 64 -160 76 -160 14 0 74 129 74 157 0 12 -11 45 -25 75 -32 69 -32 97 2 124 25 19 26 24 15 48 -10 23 -17 26 -61 26 -32 0 -55 -6 -65 -16z"/>
<path d="M839 1076 c-126 -45 -241 -185 -271 -330 -18 -83 -18 -83 129 -92 161 -11 829 -9 943 2 l85 9 -1 58 c-3 136 -145 316 -281 357 -35 11 -46 11 -63 -1 -12 -8 -65 -97 -118 -199 -74 -141 -101 -185 -116 -185 -15 0 -41 42 -113 180 -88 169 -119 216 -147 215 -6 -1 -27 -7 -47 -14z"/>
<path d="M402 614 c-12 -8 -32 -34 -44 -57 -31 -60 -31 -184 0 -244 41 -78 85 -87 312 -65 63 7 160 12 216 12 94 0 102 2 124 25 13 14 20 28 16 32 -4 4 -128 -3 -277 -16 -302 -26 -313 -25 -351 36 -28 46 -29 138 -1 185 24 42 62 63 96 54 52 -13 77 -115 38 -150 -28 -26 -56 -12 -76 36 -21 54 -35 36 -35 -44 0 -77 20 -98 93 -98 95 0 512 42 526 54 31 25 -11 226 -48 226 -9 0 -99 7 -201 15 -250 20 -359 19 -388 -1z"/>
<path d="M1487 614 c-93 -7 -171 -15 -173 -17 -3 -2 0 -24 5 -48 6 -24 11 -76 11 -116 l0 -72 33 -5 c17 -3 151 -17 297 -31 239 -22 266 -23 277 -9 18 24 25 123 13 183 -5 29 -10 55 -10 57 0 2 -14 19 -31 39 l-31 35 -112 -1 c-61 -1 -187 -7 -279 -15z"/>
<path d="M1057 549 c15 -52 14 -206 -2 -256 -7 -23 -7 -23 103 -23 79 0 113 4 121 13 19 23 30 142 20 213 -15 106 -12 104 -143 104 l-114 0 15 -51z"/>
<path d="M1321 306 c-7 -9 -11 -23 -7 -31 4 -12 24 -15 93 -15 48 0 142 -5 208 -10 164 -14 249 -14 277 1 22 12 19 14 -32 20 -30 4 -136 14 -235 23 -99 9 -205 19 -236 22 -43 4 -58 2 -68 -10z"/>
</g>
</svg>
