<?xml version="1.0" standalone="no"?>
<!DOCTYPE svg PUBLIC "-//W3C//DTD SVG 20010904//EN" "http://www.w3.org/TR/2001/REC-SVG-20010904/DTD/svg10.dtd">
<svg xmlns="http://www.w3.org/2000/svg" version="1.0" width="303.000000pt" height="166.000000pt" viewBox="0 0 303.000000 166.000000" preserveAspectRatio="xMidYMid meet">
<metadata>
Created by potrace 1.16, written by Peter Selinger 2001-2019
<meta name="Producer" content="Online-Convert"/></metadata>
<g transform="translate(0.000000,166.000000) scale(0.100000,-0.100000)" fill="#000000" stroke="none">
<path d="M366 1628 c-14 -20 -16 -106 -16 -728 0 -593 2 -709 14 -732 l15 -28 -157 0 c-171 0 -200 -7 -216 -52 -7 -20 -5 -33 8 -52 l16 -26 1485 0 1485 0 16 26 c13 19 15 32 8 52 -16 45 -44 52 -227 52 -153 0 -167 1 -153 16 14 14 16 94 16 735 0 478 -3 727 -10 740 -10 19 -34 19 -1140 19 l-1129 0 -15 -22z m2204 -738 l0 -680 -1060 0 -1060 0 0 680 0 680 1060 0 1060 0 0 -680z"/>
<path d="M1197 1161 c-142 -43 -265 -84 -273 -93 -28 -28 -5 -47 95 -77 53 -16 166 -51 251 -78 139 -42 165 -47 250 -48 89 0 107 4 292 63 109 34 200 62 204 62 3 0 4 -84 1 -186 l-6 -185 32 3 32 3 -3 187 -4 187 29 25 c28 25 28 25 8 44 -32 31 -520 172 -592 171 -42 0 -128 -21 -316 -78z"/>
<path d="M1130 751 c0 -106 1 -110 26 -130 43 -34 133 -62 253 -79 95 -13 129 -14 215 -4 134 16 228 39 268 66 l33 22 3 117 c1 64 -1 117 -5 117 -4 0 -79 -21 -168 -47 -217 -64 -257 -64 -461 0 -84 26 -155 47 -158 47 -3 0 -6 -49 -6 -109z"/>
</g>
</svg>
